<svg id="discount" xmlns="http://www.w3.org/2000/svg" width="22.771" height="23.731" viewBox="0 0 22.771 23.731">
  <g id="Group_1449" data-name="Group 1449" transform="translate(0)">
    <g id="Group_1448" data-name="Group 1448" transform="translate(0)">
      <path id="Path_1455" data-name="Path 1455" d="M32.032,12.171a.7.7,0,0,1,0-.615l.885-1.811a2.06,2.06,0,0,0-.889-2.736l-1.78-.945a.7.7,0,0,1-.361-.5l-.348-1.985a2.06,2.06,0,0,0-2.327-1.691l-2,.282a.7.7,0,0,1-.585-.19L23.183.583a2.06,2.06,0,0,0-2.877,0l-1.449,1.4a.7.7,0,0,1-.585.19l-2-.282A2.06,2.06,0,0,0,13.95,3.583L13.6,5.568a.7.7,0,0,1-.361.5l-1.78.945a2.06,2.06,0,0,0-.889,2.736l.885,1.811a.7.7,0,0,1,0,.615l-.885,1.811a2.06,2.06,0,0,0,.889,2.736l1.78.945a.7.7,0,0,1,.361.5l.348,1.985a2.059,2.059,0,0,0,2.031,1.712,2.117,2.117,0,0,0,.3-.021l2-.282a.7.7,0,0,1,.585.19l1.448,1.4a2.06,2.06,0,0,0,2.876,0l1.449-1.4a.7.7,0,0,1,.585-.19l2,.282a2.06,2.06,0,0,0,2.327-1.691l.348-1.985a.7.7,0,0,1,.361-.5l1.78-.945a2.06,2.06,0,0,0,.889-2.736Zm-.645,3.337-1.78.945a2.055,2.055,0,0,0-1.068,1.47l-.348,1.985a.7.7,0,0,1-.787.572l-2-.282a2.055,2.055,0,0,0-1.728.561l-1.449,1.4a.7.7,0,0,1-.973,0l-1.448-1.4a2.053,2.053,0,0,0-1.433-.582,2.1,2.1,0,0,0-.295.021l-2,.282a.7.7,0,0,1-.787-.572l-.348-1.985a2.055,2.055,0,0,0-1.068-1.47l-1.78-.945a.7.7,0,0,1-.3-.926l.885-1.811a2.055,2.055,0,0,0,0-1.817L11.8,9.145a.7.7,0,0,1,.3-.926l1.78-.945A2.055,2.055,0,0,0,14.95,5.8L15.3,3.82a.7.7,0,0,1,.787-.572l2,.282a2.055,2.055,0,0,0,1.728-.561l1.449-1.4a.7.7,0,0,1,.973,0l1.448,1.4a2.055,2.055,0,0,0,1.728.561l2-.282a.7.7,0,0,1,.787.572L28.539,5.8a2.055,2.055,0,0,0,1.068,1.47l1.78.945a.7.7,0,0,1,.3.926L30.8,10.955a2.055,2.055,0,0,0,0,1.817l.885,1.811A.7.7,0,0,1,31.387,15.509Z" transform="translate(-10.359 0.002)" fill="#707070"/>
    </g>
  </g>
  <g id="Group_1451" data-name="Group 1451" transform="translate(6.185 6.665)">
    <g id="Group_1450" data-name="Group 1450">
      <path id="Path_1456" data-name="Path 1456" d="M153.993,143.992a.684.684,0,0,0-.968,0l-9.033,9.033a.684.684,0,1,0,.968.968l9.033-9.033A.684.684,0,0,0,153.993,143.992Z" transform="translate(-143.791 -143.791)" fill="#707070"/>
    </g>
  </g>
  <g id="Group_1453" data-name="Group 1453" transform="translate(6.139 5.707)">
    <g id="Group_1452" data-name="Group 1452">
      <path id="Path_1457" data-name="Path 1457" d="M145.311,123.116a2.509,2.509,0,1,0,2.509,2.509A2.512,2.512,0,0,0,145.311,123.116Zm0,3.65a1.141,1.141,0,1,1,1.141-1.141A1.142,1.142,0,0,1,145.311,126.766Z" transform="translate(-142.802 -123.116)" fill="#707070"/>
    </g>
  </g>
  <g id="Group_1455" data-name="Group 1455" transform="translate(11.614 13.006)">
    <g id="Group_1454" data-name="Group 1454">
      <path id="Path_1458" data-name="Path 1458" d="M263.431,280.61a2.509,2.509,0,1,0,2.509,2.509A2.512,2.512,0,0,0,263.431,280.61Zm0,3.65a1.141,1.141,0,1,1,1.141-1.141A1.142,1.142,0,0,1,263.431,284.26Z" transform="translate(-260.922 -280.61)" fill="#707070"/>
    </g>
  </g>
</svg>
