<svg xmlns="http://www.w3.org/2000/svg" width="15.176" height="8.958" viewBox="0 0 15.176 8.958">
  <g id="down-arrow" transform="translate(14.107 7.88) rotate(180)">
    <path id="Path_21" data-name="Path 21" d="M12.538,6.713,6.509.683.48,6.713a.283.283,0,0,1-.4-.4L6.309.083a.283.283,0,0,1,.4,0l6.23,6.229a.283.283,0,1,1-.393.407l-.007-.007Z" transform="translate(0.001 0)" fill="none" stroke="#c6c6c6" stroke-width="2"/>
    <path id="Path_22" data-name="Path 22" d="M6.509,0a.283.283,0,0,0-.2.083L.079,6.312a.283.283,0,0,0,.4.4L6.509.684l6.029,6.03a.283.283,0,0,0,.407-.393l-.007-.007L6.709.083A.283.283,0,0,0,6.509,0Z" transform="translate(0 0)" fill="none" stroke="#c6c6c6" stroke-width="2"/>
  </g>
</svg>
