<svg id="Component_3_1" data-name="Component 3 – 1" xmlns="http://www.w3.org/2000/svg" width="24" height="24" viewBox="0 0 24 24">
  <path id="Path_38" data-name="Path 38" d="M87.328,82.2h-14.3a3.026,3.026,0,0,0-5.592,0H65.206a.875.875,0,1,0,0,1.745h2.232a3.026,3.026,0,0,0,5.592,0h14.3a.875.875,0,1,0,0-1.745ZM70.234,84.072a1,1,0,1,1,1.072-1A1.038,1.038,0,0,1,70.234,84.072Z" transform="translate(-64.267 -80.334)" fill="#003566"/>
  <path id="Path_39" data-name="Path 39" d="M87.328,210.736H85.1a3.026,3.026,0,0,0-5.592,0h-14.3a.875.875,0,1,0,0,1.745H79.5a3.026,3.026,0,0,0,5.592,0h2.232a.875.875,0,1,0,0-1.745ZM82.3,212.605a1,1,0,1,1,1.072-1A1.038,1.038,0,0,1,82.3,212.605Z" transform="translate(-64.267 -199.609)" fill="#003566"/>
  <path id="Path_40" data-name="Path 40" d="M87.328,339.269H77.052a3.026,3.026,0,0,0-5.592,0H65.206a.875.875,0,1,0,0,1.745H71.46a3.026,3.026,0,0,0,5.592,0H87.328a.875.875,0,1,0,0-1.745Zm-13.072,1.869a1,1,0,1,1,1.072-1A1.038,1.038,0,0,1,74.256,341.139Z" transform="translate(-64.267 -318.884)" fill="#003566"/>
</svg>
