<svg xmlns="http://www.w3.org/2000/svg" width="22.719" height="27.952" viewBox="0 0 22.719 27.952">
  <g id="Group_11806" data-name="Group 11806" transform="translate(-151.317 -273.888)">
    <g id="money" transform="translate(151.317 273.888)">
      <g id="Group_11799" data-name="Group 11799" transform="translate(6.76 6.393)">
        <g id="Group_11798" data-name="Group 11798">
          <g id="Group_11797" data-name="Group 11797">
            <path id="Path_4051" data-name="Path 4051" d="M316.209,117.123h.033S316.216,117.06,316.209,117.123Z" transform="translate(-308.322 -117.095)" fill="#707070"/>
            <path id="Path_4052" data-name="Path 4052" d="M171.747,117.123h.033C171.772,117.06,171.747,117.123,171.747,117.123Z" transform="translate(-171.747 -117.095)" fill="#707070"/>
          </g>
        </g>
      </g>
      <g id="Group_11801" data-name="Group 11801" transform="translate(0 0)">
        <g id="Group_11800" data-name="Group 11800" transform="translate(0 0)">
          <path id="Path_4053" data-name="Path 4053" d="M70.447,8.432a1.284,1.284,0,0,0-.806-.574l-1.772-.407.818-.229a1.292,1.292,0,1,0-.7-2.489L64.176,5.8a1.3,1.3,0,0,0-.411-.45c.774-1.441,1.89-3.886,1.89-4.938a.417.417,0,0,0-.494-.4,20.459,20.459,0,0,1-4.313.432A24.88,24.88,0,0,1,56.529.01a.416.416,0,0,0-.44.616,4.277,4.277,0,0,1,.53,1.415,8.547,8.547,0,0,1-3.951-.676.416.416,0,0,0-.591.437,8.938,8.938,0,0,0,1.742,4.208H53.8a1.292,1.292,0,0,0-.169,2.573,15.455,15.455,0,0,1-1.813,2.276,12.905,12.905,0,0,0-3.7,6.486,9.6,9.6,0,0,0,.027,3.985,7.382,7.382,0,0,0,1.514,3.043,9.32,9.32,0,0,0,3.995,2.719,14.891,14.891,0,0,0,9.979,0,9.32,9.32,0,0,0,3.995-2.719,7.381,7.381,0,0,0,1.514-3.043,9.6,9.6,0,0,0,.027-3.985,12.905,12.905,0,0,0-3.7-6.486c-.5-.556-.976-1.085-1.374-1.623l4.972,1.142a1.292,1.292,0,0,0,1.385-1.946ZM60.838,1.265A20.831,20.831,0,0,0,64.751.926a21.367,21.367,0,0,1-1.807,4.207,1.3,1.3,0,0,0-1.127.876H60.673l-.086-.185A9.6,9.6,0,0,1,59.5,2.173a.417.417,0,0,0-.493-.4,14.556,14.556,0,0,1-1.558.222A5.32,5.32,0,0,0,57.167.963,27.778,27.778,0,0,0,60.838,1.265ZM63.51,6.422v1.76a.467.467,0,0,1-.935,0V6.422a.467.467,0,0,1,.935,0ZM53.038,2.409a10.43,10.43,0,0,0,3.67.46l.817-.052c.386-.035.777-.086,1.171-.153a11.021,11.021,0,0,0,1.066,3.345h-4.89a.423.423,0,0,0-.03-.042A7.893,7.893,0,0,1,53.038,2.409Zm11.813,9A12.227,12.227,0,0,1,68.357,17.5a7.373,7.373,0,0,1-1.364,6.349c-1.705,2.055-4.826,3.281-8.349,3.281S52,25.9,50.293,23.846A7.373,7.373,0,0,1,48.929,17.5a12.227,12.227,0,0,1,3.506-6.087,13.523,13.523,0,0,0,2.135-2.816h1.007a.412.412,0,1,0,0-.825H53.8a.467.467,0,1,1,0-.935H61.75v.935H57.543a.412.412,0,1,0,0,.825h4.275a1.292,1.292,0,0,0,1.418.865A20.057,20.057,0,0,0,64.851,11.41Zm-.516-4.8,3.878-1.085a.467.467,0,1,1,.252.9l-2.216.62a.409.409,0,0,0-.052.019L64.335,6.64V6.613Zm5.472,2.61a.468.468,0,0,1-.56.351L64.309,8.439a1.3,1.3,0,0,0,.026-.258v-.7l5.121,1.177A.472.472,0,0,1,69.807,9.223Z" transform="translate(-47.923 -0.001)" fill="#707070"/>
        </g>
      </g>
      <g id="Group_11803" data-name="Group 11803" transform="translate(7.007 10.408)">
        <g id="Group_11802" data-name="Group 11802">
          <path id="Path_4054" data-name="Path 4054" d="M182.629,197.193a1.074,1.074,0,0,0,1.072-1.072v-.66a3.057,3.057,0,0,0-2.64-3.024v-.715a1.072,1.072,0,1,0-2.145,0v.77a3.382,3.382,0,0,0,.742,6.682h.66a1.237,1.237,0,0,1,0,2.475h-.99a.908.908,0,0,1-.907-.907,1.072,1.072,0,1,0-2.145,0,3.057,3.057,0,0,0,2.64,3.024v.715a1.072,1.072,0,0,0,2.145,0v-.77a3.382,3.382,0,0,0-.742-6.682h-.66a1.237,1.237,0,1,1,0-2.475h.99a.908.908,0,0,1,.907.907v.66A1.074,1.074,0,0,0,182.629,197.193Zm-1.98-3.465h-.99a2.062,2.062,0,1,0,0,4.125h.66a2.557,2.557,0,0,1,.284,5.1.412.412,0,0,0-.367.41v1.119a.247.247,0,0,1-.495,0v-1.1a.412.412,0,0,0-.412-.412,2.23,2.23,0,0,1-2.227-2.227.247.247,0,0,1,.495,0,1.734,1.734,0,0,0,1.732,1.732h.99a2.062,2.062,0,0,0,0-4.125h-.66a2.557,2.557,0,0,1-.284-5.1.413.413,0,0,0,.367-.41v-1.119a.247.247,0,1,1,.495,0v1.1a.412.412,0,0,0,.412.412,2.23,2.23,0,0,1,2.227,2.227v.66a.247.247,0,0,1-.495,0v-.66A1.734,1.734,0,0,0,180.649,193.729Z" transform="translate(-176.277 -190.649)" fill="#707070"/>
        </g>
      </g>
    </g>
  </g>
</svg>
