<svg xmlns="http://www.w3.org/2000/svg" width="20.223" height="17.976" viewBox="0 0 20.223 17.976">
  <path id="Icon_awesome-hospital-alt" data-name="Icon awesome-hospital-alt" d="M19.1,3.37H14.605V1.123A1.122,1.122,0,0,0,13.482,0H6.741A1.122,1.122,0,0,0,5.617,1.123V3.37H1.123A1.122,1.122,0,0,0,0,4.494v12.92a.563.563,0,0,0,.562.562h19.1a.563.563,0,0,0,.562-.562V4.494A1.122,1.122,0,0,0,19.1,3.37ZM5.617,15.307a.423.423,0,0,1-.421.421h-1.4a.423.423,0,0,1-.421-.421V13.9a.423.423,0,0,1,.421-.421H5.2a.423.423,0,0,1,.421.421Zm0-4.494a.423.423,0,0,1-.421.421h-1.4a.423.423,0,0,1-.421-.421v-1.4a.423.423,0,0,1,.421-.421H5.2a.423.423,0,0,1,.421.421Zm5.617,4.494a.423.423,0,0,1-.421.421h-1.4a.423.423,0,0,1-.421-.421V13.9a.423.423,0,0,1,.421-.421h1.4a.423.423,0,0,1,.421.421Zm0-4.494a.423.423,0,0,1-.421.421h-1.4a.423.423,0,0,1-.421-.421v-1.4a.423.423,0,0,1,.421-.421h1.4a.423.423,0,0,1,.421.421ZM11.8,4.845a.211.211,0,0,1-.211.211h-.913v.913a.211.211,0,0,1-.211.211h-.7a.211.211,0,0,1-.211-.211V5.056H8.637a.211.211,0,0,1-.211-.211v-.7a.211.211,0,0,1,.211-.211H9.55V3.019a.211.211,0,0,1,.211-.211h.7a.211.211,0,0,1,.211.211v.913h.913a.211.211,0,0,1,.211.211Zm5.056,10.462a.423.423,0,0,1-.421.421h-1.4a.423.423,0,0,1-.421-.421V13.9a.423.423,0,0,1,.421-.421h1.4a.423.423,0,0,1,.421.421Zm0-4.494a.423.423,0,0,1-.421.421h-1.4a.423.423,0,0,1-.421-.421v-1.4a.423.423,0,0,1,.421-.421h1.4a.423.423,0,0,1,.421.421Z" fill="#adb5bd"/>
</svg>
