<svg xmlns="http://www.w3.org/2000/svg" width="22.684" height="22.684" viewBox="0 0 22.684 22.684">
  <path id="Icon_awesome-question-circle" data-name="Icon awesome-question-circle" d="M23.247,11.9A11.342,11.342,0,1,1,11.9.562,11.342,11.342,0,0,1,23.247,11.9ZM12.209,4.313a5.924,5.924,0,0,0-5.33,2.916A.55.55,0,0,0,7,7.972l1.587,1.2a.549.549,0,0,0,.762-.1c.817-1.036,1.377-1.637,2.621-1.637.934,0,2.09.6,2.09,1.507,0,.685-.565,1.037-1.488,1.554-1.076.6-2.5,1.354-2.5,3.232v.183a.549.549,0,0,0,.549.549h2.561a.549.549,0,0,0,.549-.549v-.061c0-1.3,3.8-1.356,3.8-4.878C17.539,6.325,14.787,4.313,12.209,4.313Zm-.3,11.342a2.1,2.1,0,1,0,2.1,2.1A2.106,2.106,0,0,0,11.9,15.655Z" transform="translate(-0.563 -0.563)" fill="#00488f"/>
</svg>
