<svg xmlns="http://www.w3.org/2000/svg" width="34.851" height="31.138" viewBox="0 0 34.851 31.138">
  <g id="map" transform="translate(0 -27.272)">
    <g id="Group_11769" data-name="Group 11769" transform="translate(0 27.272)">
      <g id="Group_11768" data-name="Group 11768">
        <path id="Path_4044" data-name="Path 4044" d="M34.843,57.807,32.436,44.535c-.05-.278-.134.544-.412.595s-.645-.69-.595-.412l1.229,6.774L26,43.761l4.477-1,.663.369.288,1.587a.512.512,0,1,0,1.007-.182l-.331-1.825a.511.511,0,0,0-.254-.356l-1.044-.581h0l-3.3-1.837h0l-2.547-1.418h0a.507.507,0,0,0-.06-.028l-.02-.006-.043-.014-.025,0-.04-.007-.027,0h-.066l-.038,0-.027,0-.037.009-.027.008-.035.013-.027.012-.012.005-1.169.609a9.947,9.947,0,0,0,1.309-4.693,7.155,7.155,0,1,0-14.311,0,9.978,9.978,0,0,0,1.334,4.74l-1.259-.656-.012-.005-.026-.012-.036-.014-.027-.008-.037-.009-.028,0-.038,0h-.066l-.028,0-.038.006-.027.005-.041.013-.022.007a.517.517,0,0,0-.06.028h0L3,42.354a.511.511,0,0,0-.254.356L.805,53.413a.512.512,0,1,0,1.007.182l.582-3.211,6.62-3.5-.532,6.874L1.188,57.034,1.812,53.6c.05-.278-.317.463-.595.412s-.362-.873-.412-.595l-.8,4.395a.511.511,0,0,0,.713.558l8.248-3.7,8.244,3.7h0l.014.006.023.009.023.008.015,0,.019,0,.032.006.015,0h.01l.052,0h.01a.51.51,0,0,0,.062,0H17.5l.012,0,.048-.01.013,0h0l0,0a.509.509,0,0,0,.059-.022l8.247-3.7,8.248,3.7.024.009.024.009.033.009.02.005.04.007.014,0,.055,0h0a.517.517,0,0,0,.074-.006l.017,0a.5.5,0,0,0,.073-.018l0,0a.477.477,0,0,0,.047-.019l.013-.007.038-.022c.012-.008.025-.015.036-.024l.013-.008c.009-.007.017-.015.025-.023l.02-.018a.487.487,0,0,0,.043-.049l.008-.009a.511.511,0,0,0,.041-.065l.009-.02a.527.527,0,0,0,.021-.051c0-.009.006-.018.008-.027s.009-.032.012-.048,0-.019,0-.028a.52.52,0,0,0,0-.053c0-.008,0-.017,0-.025A.476.476,0,0,0,34.843,57.807ZM25.852,40.186l-.524.123-.034-.433Zm-1.116,5.733L22.6,44.251a.512.512,0,0,0-.519-.066l-4.142,1.8v-.561a24.032,24.032,0,0,0,1.855-1.7L24.41,41.7Zm-.476-6.142.065.843-2.883,1.267q.429-.532.8-1.059Zm-13.669,0,2.12,1.105q.471.662,1.033,1.334c.328.391.654.755.969,1.088l-4.347-.622Zm-1.483,5.9L2.626,49.1l.316-1.741.008-.045,6.287-3.314ZM9.331,42.8,3.182,46.04l.528-2.91,5.848-3.255-.147,1.9Zm.175,10.983.484-6.253,6.042,9.184Zm7.408-1.972-3.151-4.966,3.151.377Zm0-5.619-4.1-.491a.512.512,0,0,0-.493.782l4.592,7.238v2.47L10.12,45.864l.167-2.16,5.644.808c.426.4.771.688.983.863v.816Zm.544-1.7c-1.292-1.089-6.132-5.479-6.132-10.068a6.132,6.132,0,1,1,12.265,0C23.591,39.016,18.75,43.406,17.459,44.5Zm.479,12.613V54.838l1.529,1.584Zm2.521-1.132-2.521-2.611V47.1l4.273-1.86L24.843,47.3l.5,6.482ZM25.408,41.34l1.774-.415,1.258.7.7.387-3.613.806Zm.962,12.419-.4-5.156,6.571,7.927Zm-.536-6.924-.139-1.795-.006-.076,7.33,8.515.47,2.592Z" transform="translate(0 -27.272)" fill="#707070"/>
      </g>
    </g>
    <g id="Group_13110" data-name="Group 13110">
      <g id="Group_11771" data-name="Group 11771" transform="translate(14.297 31.266)">
        <g id="Group_11770" data-name="Group 11770">
          <path id="Path_4045" data-name="Path 4045" d="M213.2,85.95c-.282,0-1.532.663-1.532.946,0,.127-.333.607,0,.6.02,0-.019.082.056.045a8.113,8.113,0,0,1,.9-.519,1.138,1.138,0,0,1,.236-.047,1.952,1.952,0,0,1,.337-.049,2.184,2.184,0,0,1,2.138,2.188,2.138,2.138,0,1,1-3.664-1.5c.2-.2,1.942-1.424,1.741-1.622a2.975,2.975,0,0,0-1.643.328,3.419,3.419,0,0,0-.828.577,3.161,3.161,0,1,0,2.255-.946Z" transform="translate(-210.042 -85.95)" fill="#707070"/>
        </g>
      </g>
    </g>
  </g>
</svg>
