<svg id="price-tag" xmlns="http://www.w3.org/2000/svg" width="23.732" height="23.732" viewBox="0 0 23.732 23.732">
  <path id="Path_1451" data-name="Path 1451" d="M175.677,123.879l3.277-9.833a.7.7,0,0,0-1.319-.44l-3.277,9.833a.7.7,0,1,0,1.319.44Z" transform="translate(-166.242 -107.888)" fill="#1e1e1e"/>
  <path id="Path_1452" data-name="Path 1452" d="M266.619,193.375a2.086,2.086,0,1,0-2.086-2.086A2.088,2.088,0,0,0,266.619,193.375Zm0-2.781a.7.7,0,1,1-.7.7A.7.7,0,0,1,266.619,190.594Z" transform="translate(-252.272 -180.433)" fill="#1e1e1e"/>
  <path id="Path_1453" data-name="Path 1453" d="M96.913,189.2A2.086,2.086,0,1,0,99,191.289,2.088,2.088,0,0,0,96.913,189.2Zm0,2.781a.7.7,0,1,1,.7-.7A.7.7,0,0,1,96.913,191.984Z" transform="translate(-90.432 -180.433)" fill="#1e1e1e"/>
  <path id="Path_1454" data-name="Path 1454" d="M23.593,8.622,21.168,5.389l.095-.662a.7.7,0,0,0-.2-.59L19.591,2.662l1.475-1.475A.7.7,0,0,0,20.083.2L18.608,1.679,17.133.2a.7.7,0,0,0-.59-.2L9.66.99a.7.7,0,0,0-.393.2L.746,9.709a2.552,2.552,0,0,0,0,3.605l7.21,7.211a2.543,2.543,0,0,0,.48.376v.282a2.552,2.552,0,0,0,2.549,2.549h10.2a2.552,2.552,0,0,0,2.549-2.549V9.039a.7.7,0,0,0-.139-.417ZM1.729,12.331a1.16,1.16,0,0,1,0-1.639l8.358-8.358,6.309-.9,1.229,1.229-.983.983-.492-.492a.7.7,0,0,0-.983.983L17.133,6.1a.7.7,0,1,0,.983-.983l-.492-.492.983-.983,1.229,1.229-.9,6.309-8.358,8.358a1.159,1.159,0,0,1-1.639,0Zm20.612,8.852a1.16,1.16,0,0,1-1.159,1.159h-10.2A1.16,1.16,0,0,1,9.83,21.268a2.539,2.539,0,0,0,1.731-.744L20.083,12a.7.7,0,0,0,.2-.393l.611-4.274L22.341,9.27Z" transform="translate(0 0)" fill="#1e1e1e"/>
</svg>
